<svg width="97" height="81" viewBox="0 0 97 81" fill="none" xmlns="http://www.w3.org/2000/svg">
<path d="M40.8432 0.356042C41.8432 3.35604 42.3432 5.85604 42.3432 7.85605C42.3432 9.65605 42.0432 12.0561 41.4432 15.056C28.0432 15.056 21.3432 21.9561 21.3432 35.7561C21.3432 40.756 23.9432 43.556 29.1432 44.1561C36.7432 44.756 40.5432 49.656 40.5432 58.856C40.5432 65.856 38.8432 71.256 35.4432 75.056C32.2432 78.656 26.3432 80.456 17.7432 80.456C5.94315 80.456 0.0431526 72.456 0.0431526 56.456C0.0431526 40.456 3.24315 27.156 9.64315 16.556C16.0432 5.75604 26.4432 0.356042 40.8432 0.356042ZM95.1432 0.356042C96.1432 3.35604 96.6432 5.85604 96.6432 7.85605C96.6432 9.65605 96.3432 12.0561 95.7432 15.056C82.3432 15.056 75.6432 21.9561 75.6432 35.7561C75.6432 40.756 78.2432 43.556 83.4432 44.1561C91.0432 44.756 94.8432 49.656 94.8432 58.856C94.8432 65.856 93.1432 71.256 89.7432 75.056C86.5432 78.656 80.6432 80.456 72.0432 80.456C60.2432 80.456 54.3432 72.456 54.3432 56.456C54.3432 40.456 57.5432 27.156 63.9432 16.556C70.3432 5.75604 80.7432 0.356042 95.1432 0.356042Z" fill="white"/>
</svg>
